<svg width="16" height="16" viewBox="0 0 16 16" fill="none" xmlns="http://www.w3.org/2000/svg">
<path d="M16 12C16 12.4715 15.8127 12.9237 15.4793 13.2571C15.1459 13.5905 14.6937 13.7778 14.2222 13.7778H1.77778C1.30628 13.7778 0.854097 13.5905 0.520699 13.2571C0.187301 12.9237 0 12.4715 0 12V4.00001C0 3.52851 0.187301 3.07633 0.520699 2.74293C0.854097 2.40953 1.30628 2.22223 1.77778 2.22223H14.2222C14.6937 2.22223 15.1459 2.40953 15.4793 2.74293C15.8127 3.07633 16 3.52851 16 4.00001V12Z" fill="#C60A1D"/>
<path d="M0 5.33331H16V10.6666H0V5.33331Z" fill="#FFC400"/>
<path d="M4 7.55554V8.88888C4 9.2425 4.14048 9.58164 4.39052 9.83168C4.64057 10.0817 4.97971 10.2222 5.33333 10.2222C5.68696 10.2222 6.02609 10.0817 6.27614 9.83168C6.52619 9.58164 6.66667 9.2425 6.66667 8.88888V7.55554H4Z" fill="#EA596E"/>
<path d="M5.33334 7.11108H6.66668V8.44442H5.33334V7.11108Z" fill="#F4A2B2"/>
<path d="M4 7.11108H5.33333V8.44442H4V7.11108Z" fill="#DD2E44"/>
<path d="M5.33333 7.1111C6.06971 7.1111 6.66667 6.81263 6.66667 6.44444C6.66667 6.07625 6.06971 5.77777 5.33333 5.77777C4.59695 5.77777 4 6.07625 4 6.44444C4 6.81263 4.59695 7.1111 5.33333 7.1111Z" fill="#EA596E"/>
<path d="M5.33333 6.44444C6.06971 6.44444 6.66667 6.2952 6.66667 6.1111C6.66667 5.92701 6.06971 5.77777 5.33333 5.77777C4.59695 5.77777 4 5.92701 4 6.1111C4 6.2952 4.59695 6.44444 5.33333 6.44444Z" fill="#FFAC33"/>
<path d="M3.11111 7.11108H3.55556V10.2222H3.11111V7.11108ZM7.11111 7.11108H7.55556V10.2222H7.11111V7.11108Z" fill="#99AAB5"/>
<path d="M2.66666 9.7778H3.99999V10.2222H2.66666V9.7778ZM6.66666 9.7778H7.99999V10.2222H6.66666V9.7778ZM3.1111 6.66669H3.55555V7.11113H3.1111V6.66669ZM7.1111 6.66669H7.55555V7.11113H7.1111V6.66669Z" fill="#66757F"/>
</svg>
