<svg width="16" height="16" viewBox="0 0 16 16" fill="none" xmlns="http://www.w3.org/2000/svg">
<path d="M6.5 4.44V5.285H15.9913C15.978 5.0125 15.9495 4.668 15.8475 4.44" fill="#EC1C24"/>
<path d="M15.4 3.595H6.5V4.44H15.8475C15.746 4.12475 15.595 3.83725 15.4 3.595Z" fill="#E6E7E8"/>
<path d="M13.5 2.75H6.5V3.595H15.4C14.9827 3.0725 14.296 2.75 13.5 2.75Z" fill="#EC1C24"/>
<path d="M15.9913 5.285H6.5V6.13H16V5.56675C16 5.5165 15.9967 5.4675 15.9952 5.41825C15.9942 5.40475 15.9928 5.37 15.9913 5.285Z" fill="#E6E7E8"/>
<path d="M6.5 6.975H16V6.13H6.5V6.975Z" fill="#EC1C24"/>
<path d="M6.5 7.82001H16V6.97501H6.5V7.82001Z" fill="#E6E7E8"/>
<path d="M6.5 7.82001H16V8.66501H6.5V7.82001Z" fill="#EC1C24"/>
<path d="M0 8.66501V9.51001H16V8.66501H6.5H0Z" fill="#E6E7E8"/>
<path d="M0 9.51001H16V10.355H0V9.51001Z" fill="#EC1C24"/>
<path d="M0.00125 10.8748C0.00125 10.8748 -0.001 11.0795 0.005 11.2H15.995C16.002 11.0765 15.9987 10.8748 15.9987 10.8748L16 10.355H0L0.00125 10.8748Z" fill="#E6E7E8"/>
<path d="M2.5 13.75H13.5C14.2983 13.75 14.9618 13.46 15.415 12.89H0.5825C1.0505 13.4725 1.7265 13.75 2.49875 13.75" fill="#EC1C24"/>
<path d="M0.583749 12.89H15.4162C15.614 12.6388 15.7617 12.3519 15.8512 12.045H0.151249C0.242523 12.351 0.389577 12.6375 0.584999 12.89" fill="#E6E7E8"/>
<path d="M0.150001 12.045H15.85C15.9319 11.7701 15.9805 11.4865 15.995 11.2H0.00500107C0.0297511 11.489 0.0527511 11.7073 0.150001 12.045Z" fill="#EC1C24"/>
<path d="M6.5 2.75H2.5C0.84325 2.75 0 3.98125 0 5.5V8.665H6.5V2.75Z" fill="#176496"/>
<path d="M0.6995 4.244L0.8355 4.1395L0.97125 4.244L0.9185 4.076L1.05375 3.97325H0.88675L0.835 3.8045L0.7835 3.97325H0.61675L0.7525 4.076L0.6995 4.244ZM1.598 4.244L1.734 4.1395L1.86975 4.244L1.81725 4.076L1.95225 3.97325H1.7855L1.73375 3.8045L1.68225 3.97325H1.515L1.65075 4.076L1.598 4.244ZM2.58925 4.244L2.725 4.1395L2.861 4.244L2.80825 4.076L2.94325 3.97325H2.7775L2.725 3.8045L2.67325 3.97325H2.5075L2.64175 4.076L2.58925 4.244ZM3.57325 4.244L3.709 4.1395L3.845 4.244L3.7925 4.076L3.9275 3.97325H3.76L3.709 3.8045L3.6575 3.97325H3.4905L3.626 4.076L3.57325 4.244ZM4.56075 4.244L4.69675 4.1395L4.8325 4.244L4.78 4.076L4.91525 3.97325H4.748L4.6965 3.8045L4.645 3.97325H4.47825L4.61325 4.076L4.56075 4.244ZM1.17775 4.68275L1.3135 4.5785L1.44925 4.68275L1.397 4.515L1.532 4.41225H1.365L1.31325 4.24375L1.2625 4.41225H1.095L1.23025 4.515L1.17775 4.68275ZM2.0765 4.68275L2.21225 4.5785L2.348 4.68275L2.2955 4.515L2.4305 4.41225H2.2625L2.21225 4.24375L2.1605 4.41225H1.99375L2.129 4.515L2.0765 4.68275ZM3.06775 4.68275L3.20325 4.5785L3.339 4.68275L3.2865 4.515L3.42175 4.41225H3.255L3.20325 4.24375L3.1515 4.41225H2.9845L3.11975 4.515L3.06775 4.68275ZM4.05125 4.68275L4.18725 4.5785L4.32325 4.68275L4.27 4.515L4.4055 4.41225H4.23875L4.187 4.24375L4.13575 4.41225H3.96875L4.104 4.515L4.05125 4.68275ZM5.04 4.68275L5.17475 4.5785L5.3105 4.68275L5.2575 4.515L5.393 4.41225H5.2265L5.1745 4.24375L5.12325 4.41225H4.95625L5.0915 4.515L5.04 4.68275ZM5.59675 4.244L5.7325 4.1395L5.8685 4.244L5.81575 4.076L5.95075 3.97325H5.785L5.73225 3.8045L5.68075 3.97325H5.5125L5.64925 4.076L5.59675 4.244ZM0.68625 7.755L0.82225 7.65175L0.958 7.755L0.9055 7.5885L1.0405 7.4855L0.87375 7.486L0.82175 7.3175L0.77075 7.486L0.6035 7.4855L0.73875 7.5885L0.68625 7.755ZM1.585 7.755L1.72075 7.65175L1.85675 7.755L1.804 7.5885L1.939 7.4855L1.7725 7.486L1.7205 7.3175L1.66925 7.486L1.5025 7.4855L1.6375 7.5885L1.585 7.755ZM2.57625 7.755L2.712 7.65175L2.848 7.755L2.79525 7.5885L2.93025 7.4855L2.7625 7.486L2.71175 7.3175L2.66025 7.486L2.4935 7.4855L2.62875 7.5885L2.57625 7.755ZM3.56025 7.755L3.696 7.65175L3.83175 7.755L3.78 7.5885L3.91425 7.4855L3.74725 7.486L3.69575 7.3175L3.64425 7.486L3.4775 7.4855L3.6125 7.5885L3.56025 7.755ZM4.5475 7.755L4.6835 7.65175L4.8195 7.755L4.7675 7.5885L4.90175 7.4855L4.735 7.486L4.68325 7.3175L4.632 7.486L4.465 7.4855L4.6 7.5885L4.5475 7.755ZM5.5835 7.755L5.71925 7.65175L5.85525 7.755L5.8025 7.5885L5.93775 7.4855L5.77 7.486L5.719 7.3175L5.6675 7.486L5.5 7.4855L5.636 7.5885L5.5835 7.755ZM0.6995 5.122L0.8355 5.0175L0.97125 5.122L0.9185 4.954L1.05375 4.85125L0.88675 4.85175L0.835 4.68275L0.7835 4.85175L0.61675 4.85125L0.7525 4.954L0.6995 5.122ZM1.598 5.122L1.734 5.0175L1.86975 5.122L1.81725 4.954L1.95225 4.85125L1.7855 4.85175L1.73375 4.68275L1.68225 4.85175L1.515 4.85125L1.65075 4.954L1.598 5.122ZM2.58925 5.122L2.725 5.0175L2.861 5.122L2.80825 4.954L2.94325 4.85125L2.7775 4.85175L2.725 4.68275L2.67325 4.85175L2.5075 4.85125L2.64175 4.954L2.58925 5.122ZM3.57325 5.122L3.709 5.0175L3.845 5.122L3.7925 4.954L3.9275 4.85125L3.76 4.85175L3.709 4.68275L3.6575 4.85175L3.4905 4.85125L3.626 4.954L3.57325 5.122ZM4.56075 5.122L4.69675 5.0175L4.8325 5.122L4.78 4.954L4.91525 4.85125L4.748 4.85175L4.6965 4.68275L4.645 4.85175L4.47825 4.85125L4.61325 4.954L4.56075 5.122ZM1.17775 5.561L1.3135 5.45675L1.44925 5.561L1.397 5.39325L1.532 5.29H1.365L1.31325 5.122L1.2625 5.29H1.095L1.23025 5.39325L1.17775 5.561ZM2.0765 5.561L2.21225 5.45675L2.348 5.561L2.2955 5.39325L2.4305 5.29H2.2625L2.21225 5.122L2.1605 5.29H1.99375L2.129 5.39325L2.0765 5.561ZM3.06775 5.561L3.20325 5.45675L3.339 5.561L3.2865 5.39325L3.42175 5.29H3.255L3.20325 5.122L3.1515 5.29H2.9845L3.11975 5.39325L3.06775 5.561ZM4.05125 5.561L4.18725 5.45675L4.32325 5.561L4.27 5.39325L4.4055 5.29H4.23875L4.187 5.122L4.13575 5.29H3.96875L4.104 5.39325L4.05125 5.561ZM5.04 5.561L5.17475 5.45675L5.3105 5.561L5.2575 5.39325L5.393 5.29H5.2265L5.1745 5.122L5.12325 5.29H4.95625L5.0915 5.39325L5.04 5.561ZM5.59675 5.122L5.7325 5.0175L5.8685 5.122L5.81575 4.954L5.95075 4.85125L5.785 4.85175L5.73225 4.68275L5.68075 4.85175L5.5125 4.85125L5.64925 4.954L5.59675 5.122ZM0.68625 6L0.82225 5.89575L0.958 6L0.90525 5.8325L1.0405 5.7295L0.8735 5.73L0.82175 5.561L0.77075 5.73L0.6035 5.7295L0.73875 5.8325L0.68625 6ZM1.585 6L1.72075 5.89575L1.85675 6L1.804 5.8325L1.939 5.7295L1.7725 5.73L1.7205 5.561L1.66925 5.73L1.5025 5.7295L1.63725 5.8325L1.585 6ZM2.57625 6L2.712 5.89575L2.84775 6L2.79525 5.8325L2.93025 5.7295L2.7625 5.73L2.71175 5.561L2.66025 5.73L2.4935 5.7295L2.62875 5.8325L2.57625 6ZM3.56025 6L3.69575 5.89575L3.83175 6L3.78 5.8325L3.91425 5.7295L3.74725 5.73L3.69575 5.561L3.64425 5.73L3.4775 5.7295L3.6125 5.8325L3.56025 6ZM4.5475 6L4.6835 5.89575L4.81925 6L4.7675 5.8325L4.90175 5.7295L4.73475 5.73L4.68325 5.561L4.632 5.73L4.465 5.7295L4.6 5.8325L4.5475 6ZM1.1645 6.439L1.30025 6.335L1.436 6.439L1.38375 6.2725L1.5185 6.169H1.3515L1.3 6L1.24875 6.169H1.08175L1.217 6.2725L1.1645 6.439ZM2.06325 6.439L2.199 6.335L2.33475 6.439L2.28225 6.2725L2.41725 6.169H2.25L2.19875 6L2.14725 6.169H1.98025L2.11575 6.2725L2.06325 6.439ZM3.05475 6.439L3.19 6.335L3.326 6.439L3.2725 6.2725L3.4085 6.169H3.24175L3.19 6L3.1385 6.169H2.9715L3.10675 6.2725L3.05475 6.439ZM4.0375 6.439L4.174 6.335L4.31 6.439L4.2575 6.2725L4.39225 6.169H4.2255L4.17375 6L4.1225 6.169H3.9555L4.09075 6.2725L4.0375 6.439ZM5.025 6.439L5.1615 6.335L5.2975 6.439L5.24475 6.2725L5.38025 6.169H5.2135L5.1615 6L5.11 6.169H4.943L5.07825 6.2725L5.025 6.439ZM5.5835 6L5.71925 5.89575L5.855 6L5.8025 5.8325L5.93775 5.7295L5.77 5.73L5.719 5.561L5.6675 5.73L5.5 5.7295L5.636 5.8325L5.5835 6ZM0.68625 6.87825L0.82225 6.775L0.958 6.87825L0.90525 6.7105L1.0405 6.6075L0.8735 6.608L0.82175 6.439L0.77075 6.608L0.6035 6.6075L0.73875 6.7105L0.68625 6.87825ZM1.585 6.87825L1.72075 6.775L1.85675 6.87825L1.804 6.7105L1.939 6.6075L1.7725 6.608L1.7205 6.439L1.66925 6.608L1.5025 6.6075L1.63725 6.7105L1.585 6.87825ZM2.57625 6.87825L2.712 6.775L2.84775 6.87825L2.79525 6.7105L2.93025 6.6075L2.7625 6.608L2.71175 6.439L2.66025 6.608L2.4935 6.6075L2.62875 6.7105L2.57625 6.87825ZM3.56025 6.87825L3.69575 6.775L3.83175 6.87825L3.78 6.7105L3.91425 6.6075L3.74725 6.608L3.69575 6.439L3.64425 6.608L3.4775 6.6075L3.6125 6.7105L3.56025 6.87825ZM4.5475 6.87825L4.6835 6.775L4.81925 6.87825L4.7675 6.7105L4.90175 6.6075L4.73475 6.608L4.68325 6.439L4.632 6.608L4.465 6.6075L4.6 6.7105L4.5475 6.87825ZM1.1645 7.3175L1.30025 7.213L1.436 7.3175L1.38375 7.1495L1.5185 7.0475H1.3515L1.3 6.87825L1.24875 7.0475H1.08175L1.217 7.1495L1.1645 7.3175ZM2.06325 7.3175L2.199 7.213L2.33475 7.3175L2.28225 7.1495L2.41725 7.0475H2.25L2.19875 6.87825L2.14725 7.0475H1.98025L2.11575 7.1495L2.06325 7.3175ZM3.05475 7.3175L3.19 7.213L3.326 7.3175L3.2725 7.1495L3.4085 7.0475H3.24175L3.19 6.87825L3.1385 7.0475H2.9715L3.10675 7.1495L3.05475 7.3175ZM4.0375 7.3175L4.174 7.213L4.31 7.3175L4.2575 7.1495L4.39225 7.0475H4.2255L4.17375 6.87825L4.1225 7.0475H3.9555L4.09075 7.1495L4.0375 7.3175ZM5.025 7.3175L5.1615 7.213L5.2975 7.3175L5.24475 7.1495L5.38025 7.0475H5.2135L5.1615 6.87825L5.11 7.0475H4.943L5.07825 7.1495L5.025 7.3175ZM5.5835 6.87825L5.71925 6.775L5.855 6.87825L5.8025 6.7105L5.93775 6.6075L5.77 6.608L5.719 6.439L5.6675 6.608L5.5 6.6075L5.636 6.7105L5.5835 6.87825Z" fill="white"/>
</svg>
